<!DOCTYPE svg PUBLIC "-//W3C//DTD SVG 20010904//EN" "http://www.w3.org/TR/2001/REC-SVG-20010904/DTD/svg10.dtd">
<svg version="1.0" xmlns="http://www.w3.org/2000/svg" width="570px" height="427px" viewBox="0 0 5700 4270" preserveAspectRatio="xMidYMid meet">
<g id="layer101" fill="#211f20" stroke="none">
 <path d="M2093 4195 c-7 -20 42 -288 66 -358 27 -77 50 -119 64 -114 19 6 192 469 180 481 -4 3 -73 6 -155 6 -125 0 -150 -2 -155 -15z"/>
 <path d="M2793 4198 c-10 -12 -24 -99 -43 -268 -5 -41 -9 -118 -9 -172 l-1 -96 35 -21 c20 -11 44 -35 53 -52 9 -17 29 -50 44 -72 26 -41 27 -47 37 -278 8 -192 7 -247 -4 -295 -7 -32 -13 -94 -13 -137 -1 -88 -8 -129 -30 -172 -8 -16 -19 -61 -24 -100 -4 -38 -12 -106 -17 -150 -13 -119 -30 -202 -52 -261 -23 -60 -23 -60 -222 -118 -125 -37 -165 -57 -210 -104 -27 -28 -28 -32 -14 -53 8 -13 20 -53 26 -89 7 -36 16 -85 21 -110 31 -160 23 -197 -64 -286 l-56 -56 -87 -4 -87 -3 -33 39 c-19 21 -42 41 -52 45 -34 10 -43 52 -44 200 -2 120 6 151 53 214 35 46 40 60 40 105 0 74 -30 113 -122 161 -40 21 -106 61 -145 89 -66 47 -73 54 -73 86 0 19 -5 52 -11 73 -7 25 -7 48 -1 65 5 15 6 37 1 49 -4 12 -10 43 -13 68 -7 54 -61 158 -135 260 -44 60 -49 71 -38 89 6 12 12 50 13 86 1 36 5 82 9 103 7 32 4 42 -15 62 -29 31 -37 31 -67 3 -20 -19 -25 -20 -33 -8 -17 27 -4 35 69 41 59 4 76 10 97 31 38 38 25 70 -43 108 -48 27 -64 31 -118 29 -39 -1 -70 2 -79 10 -20 16 -45 3 -113 -62 -51 -48 -53 -52 -53 -103 0 -29 -5 -54 -11 -56 -28 -9 -69 -170 -69 -273 0 -118 48 -294 78 -287 9 1 12 -27 12 -100 0 -87 4 -111 24 -154 42 -90 118 -214 127 -208 5 3 12 23 15 45 4 21 10 39 14 39 15 0 32 -30 26 -46 -3 -8 1 -28 9 -43 21 -41 115 -142 126 -135 10 6 41 -26 63 -66 8 -14 17 -51 21 -83 6 -46 18 -75 63 -143 l55 -85 -18 -39 c-19 -43 -29 -49 -39 -25 -7 20 -33 19 -45 -2 -5 -10 -14 -44 -20 -75 -23 -110 30 -270 118 -358 54 -53 182 -120 229 -120 18 0 49 7 69 15 19 8 38 15 40 15 3 0 37 -31 77 -69 60 -57 84 -73 154 -100 100 -37 105 -37 126 -9 16 22 17 21 12 -37 -2 -37 -14 -79 -29 -110 -24 -46 -26 -64 -32 -236 l-7 -186 32 -36 c17 -20 61 -51 97 -68 120 -60 290 -48 367 24 42 41 69 122 96 290 l21 128 -25 72 c-14 40 -23 82 -21 92 2 11 6 31 9 45 4 18 16 30 41 39 36 13 189 122 298 213 34 28 63 45 70 41 7 -4 23 -15 37 -25 23 -16 29 -17 73 -3 48 14 48 14 57 -11 l10 -25 42 23 c122 68 227 226 236 356 l4 63 -51 50 c-29 28 -51 58 -51 70 0 11 16 48 36 82 61 104 148 329 159 412 6 44 11 52 38 65 23 11 40 32 62 77 34 71 90 133 119 133 29 0 86 66 151 176 64 109 130 185 187 215 42 22 93 102 102 164 4 21 13 46 20 55 25 27 28 66 10 131 -21 77 -28 86 -115 146 -58 39 -71 44 -84 33 -13 -11 -23 -11 -56 0 -36 12 -42 12 -66 -6 -39 -29 -67 -88 -54 -112 8 -16 2 -36 -31 -101 -37 -73 -50 -88 -142 -163 -186 -151 -246 -208 -246 -235 0 -30 -68 -112 -131 -158 -68 -51 -99 -101 -105 -171 -6 -74 -22 -130 -48 -170 -24 -35 -96 -118 -100 -112 -1 1 -11 27 -23 56 -20 50 -21 52 -2 52 25 0 39 30 39 87 0 113 -22 153 -85 157 -24 1 -25 4 -25 57 0 43 5 60 20 74 29 26 143 384 129 402 -9 9 -7 19 5 38 9 13 16 31 16 39 0 7 13 45 29 82 46 108 65 288 58 544 -7 258 -19 334 -58 375 l-28 30 19 30 c16 24 18 40 14 80 -5 40 -3 54 10 64 9 7 13 17 10 22 -3 5 -168 9 -368 9 -279 0 -366 -3 -373 -12z m1567 -1178 c39 -39 14 -110 -40 -110 -33 0 -60 31 -60 67 0 28 33 63 60 63 11 0 29 -9 40 -20z m-1323 -1455 c35 -25 47 -85 27 -135 -45 -111 -204 -87 -204 32 0 33 31 88 59 103 35 19 91 19 118 0z m-572 -1191 c26 -12 27 -14 5 -9 -14 2 -33 5 -42 5 -10 0 -18 5 -18 10 0 14 19 12 55 -6z m340 -43 c3 -5 2 -12 -2 -14 -13 -8 -103 5 -97 14 7 12 91 11 99 0z"/>
 <path d="M2122 2447 c-6 -6 -26 -50 -45 -97 -32 -78 -34 -90 -27 -147 4 -35 17 -79 29 -98 11 -20 21 -49 21 -64 0 -33 34 -81 58 -81 9 0 28 9 42 20 l25 19 -24 25 -24 25 20 43 c12 24 24 75 28 115 7 70 6 74 -33 156 -43 90 -54 104 -70 84z"/>
 <path d="M2107 1886 c-50 -18 -67 -34 -67 -62 0 -30 20 -42 27 -15 3 12 11 21 19 21 17 0 46 -43 42 -61 -2 -9 7 -14 25 -14 15 0 27 5 28 10 2 19 33 65 45 65 6 0 14 -9 17 -20 6 -24 25 -26 34 -4 7 19 -32 62 -74 80 -39 17 -48 17 -96 0z"/>
 <path d="M2067 1753 c-4 -4 5 -19 20 -35 34 -35 87 -38 127 -7 32 25 22 48 -12 30 -29 -16 -79 -14 -106 4 -12 8 -26 12 -29 8z"/>
 </g>

</svg>