<?xml version="1.0" standalone="no"?>
<!DOCTYPE svg PUBLIC "-//W3C//DTD SVG 20010904//EN"
 "http://www.w3.org/TR/2001/REC-SVG-20010904/DTD/svg10.dtd">
<svg version="1.0" xmlns="http://www.w3.org/2000/svg"
 width="330.000000pt" height="330.000000pt" viewBox="0 0 330.000000 330.000000"
 preserveAspectRatio="xMidYMid meet">
<g transform="translate(0.000000,330.000000) scale(0.100000,-0.100000)"
fill="#000000" stroke="none">
<path d="M400 2550 l0 -350 350 0 350 0 0 350 0 350 -350 0 -350 0 0 -350z
m600 0 l0 -250 -250 0 -250 0 0 250 0 250 250 0 250 0 0 -250z"/>
<path d="M600 2550 l0 -150 150 0 150 0 0 150 0 150 -150 0 -150 0 0 -150z"/>
<path d="M1400 2850 l0 -50 -100 0 -100 0 0 -100 0 -100 50 0 50 0 0 -50 0
-50 -50 0 -50 0 0 -200 0 -200 -100 0 -100 0 0 -50 0 -50 -50 0 -50 0 0 -50 0
-50 -50 0 -50 0 0 100 0 100 -50 0 -50 0 0 -150 0 -150 -50 0 -50 0 0 50 0 50
-100 0 -100 0 0 -50 0 -50 50 0 50 0 0 -150 0 -150 -50 0 -50 0 0 -50 0 -50
50 0 50 0 0 -50 0 -50 -50 0 -50 0 0 -50 0 -50 100 0 100 0 0 50 0 50 50 0 50
0 0 50 0 50 50 0 50 0 0 50 0 50 100 0 100 0 0 -50 0 -50 -50 0 -50 0 0 -50 0
-50 -50 0 -50 0 0 -50 0 -50 50 0 50 0 0 50 0 50 50 0 50 0 0 -50 0 -50 50 0
50 0 0 50 0 50 -50 0 -50 0 0 50 0 50 50 0 50 0 0 50 0 50 -50 0 -50 0 0 50 0
50 100 0 100 0 0 -100 0 -100 50 0 50 0 0 150 0 150 50 0 50 0 0 -50 0 -50 50
0 50 0 0 -100 0 -100 -50 0 -50 0 0 -50 0 -50 100 0 100 0 0 -100 0 -100 -50
0 -50 0 0 -50 0 -50 -50 0 -50 0 0 100 0 100 -50 0 -50 0 0 50 0 50 -50 0 -50
0 0 -150 0 -150 50 0 50 0 0 -100 0 -100 -50 0 -50 0 0 -50 0 -50 50 0 50 0 0
-50 0 -50 -50 0 -50 0 0 -100 0 -100 150 0 150 0 0 50 0 50 -100 0 -100 0 0
50 0 50 50 0 50 0 0 50 0 50 100 0 100 0 0 50 0 50 -50 0 -50 0 0 100 0 100
50 0 50 0 0 -50 0 -50 50 0 50 0 0 200 0 200 100 0 100 0 0 -50 0 -50 -50 0
-50 0 0 -50 0 -50 50 0 50 0 0 -50 0 -50 -50 0 -50 0 0 -50 0 -50 50 0 50 0 0
50 0 50 50 0 50 0 0 -100 0 -100 150 0 150 0 0 -100 0 -100 100 0 100 0 0 -50
0 -50 50 0 50 0 0 50 0 50 50 0 50 0 0 100 0 100 -50 0 -50 0 0 50 0 50 100 0
100 0 0 -50 0 -50 50 0 50 0 0 200 0 200 -50 0 -50 0 0 -50 0 -50 -50 0 -50 0
0 -50 0 -50 -50 0 -50 0 0 100 0 100 50 0 50 0 0 50 0 50 50 0 50 0 0 50 0 50
50 0 50 0 0 150 0 150 -100 0 -100 0 0 -50 0 -50 -50 0 -50 0 0 50 0 50 -50 0
-50 0 0 50 0 50 -50 0 -50 0 0 50 0 50 -50 0 -50 0 0 50 0 50 100 0 100 0 0
50 0 50 -150 0 -150 0 0 -50 0 -50 -50 0 -50 0 0 50 0 50 -50 0 -50 0 0 50 0
50 50 0 50 0 0 50 0 50 -50 0 -50 0 0 50 0 50 50 0 50 0 0 50 0 50 -50 0 -50
0 0 50 0 50 -50 0 -50 0 0 -50 0 -50 -50 0 -50 0 0 -50 0 -50 50 0 50 0 0 -50
0 -50 -50 0 -50 0 0 -50 0 -50 50 0 50 0 0 -50 0 -50 -150 0 -150 0 0 50 0 50
50 0 50 0 0 200 0 200 -50 0 -50 0 0 -200 0 -200 -50 0 -50 0 0 150 0 150 -50
0 -50 0 0 50 0 50 -50 0 -50 0 0 50 0 50 100 0 100 0 0 100 0 100 -50 0 -50 0
0 -50z m0 -600 l0 -150 50 0 50 0 0 -150 0 -150 -100 0 -100 0 0 -50 0 -50
-50 0 -50 0 0 50 0 50 50 0 50 0 0 50 0 50 -50 0 -50 0 0 100 0 100 50 0 50 0
0 150 0 150 50 0 50 0 0 -150z m600 -250 l0 -100 150 0 150 0 0 -50 0 -50 50
0 50 0 0 -50 0 -50 50 0 50 0 0 -100 0 -100 50 0 50 0 0 -50 0 -50 50 0 50 0
0 100 0 100 50 0 50 0 0 -100 0 -100 -50 0 -50 0 0 -50 0 -50 -100 0 -100 0 0
100 0 100 -50 0 -50 0 0 100 0 100 -100 0 -100 0 0 50 0 50 -50 0 -50 0 0 -50
0 -50 -50 0 -50 0 0 50 0 50 -50 0 -50 0 0 -100 0 -100 100 0 100 0 0 -50 0
-50 50 0 50 0 0 -50 0 -50 100 0 100 0 0 -50 0 -50 -150 0 -150 0 0 100 0 100
-50 0 -50 0 0 -100 0 -100 -50 0 -50 0 0 100 0 100 -50 0 -50 0 0 150 0 150
-50 0 -50 0 0 50 0 50 50 0 50 0 0 50 0 50 50 0 50 0 0 50 0 50 50 0 50 0 0
-100z m-1200 -250 l0 -50 -50 0 -50 0 0 -50 0 -50 50 0 50 0 0 -50 0 -50 -100
0 -100 0 0 -50 0 -50 -50 0 -50 0 0 50 0 50 50 0 50 0 0 100 0 100 50 0 50 0
0 50 0 50 50 0 50 0 0 -50z m300 0 l0 -50 -50 0 -50 0 0 -50 0 -50 -50 0 -50
0 0 50 0 50 50 0 50 0 0 50 0 50 50 0 50 0 0 -50z m600 -250 l0 -200 -50 0
-50 0 0 200 0 200 50 0 50 0 0 -200z m700 -450 l0 -150 -150 0 -150 0 0 150 0
150 150 0 150 0 0 -150z"/>
<path d="M1900 2850 l0 -50 -100 0 -100 0 0 -50 0 -50 150 0 150 0 0 100 0
100 -50 0 -50 0 0 -50z"/>
<path d="M2200 2550 l0 -350 350 0 350 0 0 350 0 350 -350 0 -350 0 0 -350z
m600 0 l0 -250 -250 0 -250 0 0 250 0 250 250 0 250 0 0 -250z"/>
<path d="M2400 2550 l0 -150 150 0 150 0 0 150 0 150 -150 0 -150 0 0 -150z"/>
<path d="M400 2050 l0 -50 100 0 100 0 0 50 0 50 -100 0 -100 0 0 -50z"/>
<path d="M2600 2050 l0 -50 100 0 100 0 0 -50 0 -50 -50 0 -50 0 0 -50 0 -50
100 0 100 0 0 100 0 100 -50 0 -50 0 0 50 0 50 -100 0 -100 0 0 -50z"/>
<path d="M400 750 l0 -350 350 0 350 0 0 350 0 350 -350 0 -350 0 0 -350z
m600 0 l0 -250 -250 0 -250 0 0 250 0 250 250 0 250 0 0 -250z"/>
<path d="M600 750 l0 -150 150 0 150 0 0 150 0 150 -150 0 -150 0 0 -150z"/>
<path d="M2100 650 l0 -50 -150 0 -150 0 0 -50 0 -50 50 0 50 0 0 -50 0 -50
100 0 100 0 0 50 0 50 50 0 50 0 0 -50 0 -50 100 0 100 0 0 50 0 50 -100 0
-100 0 0 100 0 100 -50 0 -50 0 0 -50z"/>
<path d="M2700 450 l0 -50 100 0 100 0 0 50 0 50 -100 0 -100 0 0 -50z"/>
</g>
</svg>
